<?xml version="1.0" encoding="utf-8"?>
<!-- Generator: Adobe Illustrator 27.1.1, SVG Export Plug-In . SVG Version: 6.00 Build 0)  -->
<svg version="1.1" id="Layer_1" xmlns="http://www.w3.org/2000/svg" xmlns:xlink="http://www.w3.org/1999/xlink" x="0px" y="0px"
	 viewBox="0 0 2592 2592" style="enable-background:new 0 0 2592 2592;" xml:space="preserve">
<style type="text/css">
	.st0{fill:#FFFFFF;stroke:#000000;stroke-width:60;stroke-miterlimit:10;}
	.st1{fill:none;stroke:#000000;stroke-width:60;stroke-linecap:round;stroke-miterlimit:10;}
</style>
<g>
	<path d="M496.6,1471.2c-63.7-41.4-121.7-87.5-170.4-144.4c-51.2-59.8-84.8-128.2-99-205.6c-17.3-94.8-11.6-188.3,19.9-279.6
		c36-104.3,96.4-191.2,187-255.5c52.5-37.3,111-60.3,175.3-68c112.7-13.6,212,19,300.8,87.3c17.5,13.5,33.9,28.6,50.7,42.9
		c24.5-7.9,49.8-16,76.6-24.6c-2.6-2.4-4.9-5.1-7.8-7c-55.7-38.9-109.8-80-157.7-128.3c-39.9-40.2-80.3-82-94.2-139.1
		c-11.2-45.9-4.4-75.8,40.6-92.8c15.8-6,34.2-7.7,51.3-7.3c76.7,1.5,149.4,22.8,221.1,47.5c41.7,14.4,83,30.2,123,48.5
		c63.1,28.9,120,67.9,171.3,114.9c4,3.6,8.5,6.7,13.8,10.9c7.9-21.2,14.9-41,22.6-60.6c14.8-37.6,34-72.4,64.7-99.7
		c19.7-17.5,41.8-26.7,68-18.2c20.4,6.6,32.6,23.4,41.2,41.4c18.8,39.2,26.2,81.7,31.1,124.4c6.1,53.3,10.5,106.8,15.8,160.2
		c0.5,4.6,1.9,9.2,3.2,15.3c17.6-13.6,34.2-27.4,51.8-39.9c65.9-47.1,138.7-75.3,220.3-78.4c115.1-4.4,212.6,36.7,294.5,115.6
		c87.3,84.2,137.9,187.8,155.7,307.5c11.8,79.5,8.6,158.2-16,235.1c-25.6,80.1-71.4,148-134.5,203c-36.5,31.8-76.5,59.7-115.1,89
		c-6.4,4.8-8,8.1-2.6,15.2c30.9,40.7,69.5,70.6,119.6,82.5c54.4,12.9,62.8,36.3,52.2,89c-9.1,45.2-28.7,86.3-50.7,126
		c-21.9,39.4-45.9,77.7-70.7,115.4c-51.5,78.4-116.3,144.7-188.9,203.7c-47.3,38.5-94.6,77.3-148.7,106
		c-43.8,23.2-88.8,44.7-134.8,63c-76.8,30.5-156.8,50.3-238,65.5c-50.2,9.4-100.9,10.6-151.6,11.1c-118.7,1.1-231.7-28.5-343.4-64.8
		c-117.5-38.2-220.5-101.4-314.4-180.8c-55.6-47-108.8-96.2-152.8-154.4c-54.1-71.5-101.9-146.9-137.4-229.4
		c-14.3-33.2-24.7-67.7-21.5-105.1c1.6-19.6,12.2-30.2,28.4-36.9c25.9-10.6,52.9-18.7,78-30.6c29.1-13.8,49.6-38.3,69-63.5
		C495.1,1475.8,495.5,1473.6,496.6,1471.2z M908.7,673c-11.2-9.1-21.7-19.4-33.7-27.1c-25-16.1-50-32.5-76.5-45.8
		c-63.5-32-131.6-38-200.4-26.2c-88.6,15.2-158.5,63.8-215.3,131.9c-29.6,35.5-53.5,74.8-71.3,117.4
		c-18.9,45.3-32.5,92.1-37.6,141.1c-4.3,41.3-3.5,82.5,2,123.7c8.6,64.1,31.1,122.4,68.4,175c32.7,46.1,73.5,84.1,117.9,118.4
		c19.4,15,40,28.5,61.3,43.7c2.8-5.7,4.8-8.9,6-12.3c11.1-30.3,22.2-60.5,33.1-90.8c5.9-16.5,18.9-23.9,34.7-19.3
		c14,4.1,21.2,19,16.1,35.4c-15.7,50.7-32.8,101-60.4,146.8c-35.7,59.2-84.4,103.1-151,125.2c-36.3,12.1-36.1,12-24.7,48.8
		c14.4,46.2,37.3,88.3,61.4,129.9c32.4,55.7,68.5,108.9,110.8,157.7c42.7,49.3,92.1,91.3,142.7,132c64.7,52,133.7,97.4,211.8,126.6
		c51.6,19.2,104.2,36.4,157.2,51.2c42.1,11.8,85.1,22.1,128.4,26.8c51.6,5.5,103.8,5.2,155.8,5.6c21.6,0.2,43.5-2.4,64.7-6.6
		c48.3-9.6,96.7-19.4,144.3-31.9c59.9-15.8,118.5-36.2,174.7-62.8c103.8-49.1,192.3-119.8,273.9-199
		c84.4-81.9,145.4-180.9,195.6-286.6c9.6-20.1,15.1-42.3,21.3-63.9c4.5-15.4,1.8-18.6-13.2-22.3c-56.6-14.1-102.4-45.3-139.4-89.5
		c-46.4-55.4-68.7-122.5-89.4-190.1c-4.4-14.4,4.3-30.3,16.3-33.4c16.5-4.3,29.3,2.8,35,19.1c8.4,24.4,16.8,49,25.5,73.3
		c3.5,9.7,8.1,19,12.5,29.2c6.9-4,11.9-6.5,16.4-9.6c50.7-34.2,99.5-71.2,138-119c22.5-28,43-58.4,59.5-90.3
		c19.6-37.7,30.4-78.9,35.6-121.6c5.9-48.7,5.5-97-2.5-145.2c-10.5-63.5-32.5-123.1-66.3-177.9c-38.9-63.1-89.1-115.2-154.3-151.4
		c-65.6-36.4-136.4-47-210-36.5c-78,11.1-143,49.2-201,101.2c1,2.2,1.6,3.7,2.4,5.2c8.6,15.1,8.3,24.8-1.1,34.9
		c-8.4,9.1-22.5,10.6-36.2,4.3c-20.4-9.4-40.4-20.1-61.5-27.6c-77.5-27.3-158.6-35.4-239.9-37.9c-56.6-1.8-113.5,0.3-169.9,5.1
		c-46,3.9-92.1,11.6-136.9,22.7c-33.8,8.4-65.4,25.6-98.5,37.3c-8.6,3.1-20.5,3.1-28.7-0.4c-10.9-4.7-14.1-16.7-11.1-28.6
		C902.6,683.5,905.9,678.9,908.7,673z M1587.9,631.8c0-3.8,0.3-7.7,0-11.5c-5.5-58-9.7-116.2-17.2-174c-3.6-28-12.6-55.4-20.8-82.6
		c-6.6-22-17.9-24.3-33.5-8.6c-24.9,25.2-38,57.1-50.7,89.2c-8.3,20.9-14.9,42.5-24.1,62.9c-9.1,20.3-22.1,26.1-43.9,24.6
		c-18.1-1.2-28.6-14.4-40.4-25c-43.6-39.3-90-74.4-142.3-101.3c-79-40.6-162.5-68.6-248.6-89.4c-37.8-9.2-76-14.9-115.1-12.8
		c-20.8,1.1-28.4,11.2-22.5,30.8c1.6,5.3,3.4,10.5,5.6,15.6c16.9,39.2,45.5,69.8,74.8,99.6c59.9,60.8,130.5,108.3,199.2,158.1
		c2.8,2,7.2,3,10.6,2.6c24.9-2.7,49.8-6.9,74.7-8.8c33.6-2.6,67.3-4.7,100.9-4.9c28.1-0.2,56.3,2,84.3,4.2
		c30.1,2.3,60.3,4.6,90.2,9.3C1508.5,615.7,1547.6,624.1,1587.9,631.8z"/>
	<path d="M1311.9,1637.8c44.5,0,86.4,11.2,122.8,36.5c53.9,37.4,81.6,87,55.6,156.4c-11.4,30.5-35,52.8-62.6,68.8
		c-77.5,45-159,47.1-240.2,12.6c-45.1-19.1-81.2-51-92.5-102c-8.5-38.7-0.5-74.2,26.7-104.6c39.9-44.5,90.9-64.1,149.2-67.6
		C1284.6,1637.1,1298.3,1637.8,1311.9,1637.8z M1294.5,1689.8c-35.7-0.9-70.6,7.9-103.5,25.9c-37.3,20.4-55.7,59.5-40,93.6
		c6.6,14.4,19,27.3,31.5,37.6c25.6,21.2,57,29.5,89.6,32.9c53.3,5.7,102.6-4.4,145.2-38.5c27.6-22.1,36.4-53.9,23.6-83
		c-8.5-19.3-23.9-32.9-42-43.4C1367.2,1696.7,1332.7,1689.2,1294.5,1689.8z"/>
</g>
<g>
	<path class="st0" d="M1899.5,1405c60,0,101.6,60.2,79.9,116.1c-46.6,120.4-163.5,205.8-300.4,205.8s-253.8-85.4-300.4-205.8
		c-21.6-55.9,20-116.1,79.9-116.1H1899.5z"/>
	<path class="st0" d="M1133.4,1405c60,0,101.6,60.2,79.9,116.1c-46.6,120.4-163.5,205.8-300.4,205.8s-253.8-85.4-300.4-205.8
		c-21.6-55.9,20-116.1,79.9-116.1H1133.4z"/>
</g>
<g>
	<g>
		<path class="st1" d="M1080.6,2085.5c-1.2-93.1,144.9-93.1,143.6,0c-1.3,93.1,144.9,93.1,143.6,0c-1.4-93.1,145-93.1,143.6,0
			c-1.5,93.1,145,93.1,143.6,0"/>
	</g>
	<g>
		<path class="st1" d="M937,2085.5c-1.4,93.2,145,93.1,143.6,0"/>
	</g>
</g>
<g>
	<path class="st1" d="M1910.2,1018.6L1910.2,1018.6c-102,0-184.8-82.7-184.8-184.8v0"/>
	<path class="st1" d="M1632.7,833.8L1632.7,833.8c0,102-82.7,184.8-184.8,184.8h0"/>
	<path class="st1" d="M1632.7,1286.2L1632.7,1286.2c0-102-82.7-184.8-184.8-184.8h0"/>
	<path class="st1" d="M1910.2,1101.4L1910.2,1101.4c-102,0-184.8,82.7-184.8,184.8v0"/>
</g>
</svg>
