<svg enable-background="new 0 0 2592 2592" viewBox="0 0 2592 2592" xmlns="http://www.w3.org/2000/svg"><path d="m496.13 1407.31c-49.67-32.09-95.46-68.06-137.52-108.99-75.65-73.6-123.12-162.03-136.11-266.59-19.98-160.91 19.94-305.77 125.02-430.84 37.96-45.17 82.82-82.72 136.16-108.31 130.14-62.42 258-55.6 381.22 18.73 34.43 20.77 65.3 47.46 98.84 72.2 21.95-7.04 47.19-15.14 74.5-23.91-12.52-9.3-24.64-17.58-35.95-26.84-44.22-36.19-90.26-70.49-131.63-109.72-38.56-36.57-74.42-77.43-90.64-129.71-5.92-19.09-7.05-42.01-2.59-61.39 6.17-26.81 29.84-39.09 55.97-44.11 38.47-7.4 76.7-2.01 114.25 5.79 100.21 20.8 197.04 52.12 288.45 98.71 54.59 27.82 104.28 62.96 149.48 104.39 3.71 3.4 7.87 6.31 13.41 10.71 6.09-16.71 10.56-32.48 17.45-47.11 13.17-27.99 26.27-56.2 42.25-82.59 8.59-14.19 21.67-26.75 35.19-36.68 42.01-30.84 79.56-15.51 101.82 29.57 18.68 37.84 25.6 79.29 30.66 120.6 6.63 54.08 10.7 108.47 16.01 162.72.48 4.91 1.96 9.73 3.26 15.92 17.29-13.37 33.39-26.51 50.2-38.68 66.4-48.07 139.91-76.54 222.47-79.66 113.6-4.3 210.32 36.04 291.63 113.44 88.54 84.27 139.87 188.49 157.87 309.11 11.39 76.35 8.96 152.17-13.3 226.51-18.67 62.36-49.16 118.5-92.72 167.14-46.36 51.78-98.79 96.48-157.89 133.15-8.55 5.31-9.75 9.3-3.16 17.8 31.88 41.15 71.6 70.09 122.82 82.12 3.72.87 7.32 2.2 10.98 3.32 36.1 11 44.34 31.11 40.04 66.28-4.26 34.91-15.63 68-31.12 99.32-55.69 112.61-122.65 217.55-214.78 304.34-67.8 63.88-140.04 122.43-220.86 169.29-75.07 43.52-156.01 73.37-239.72 94.92-55.1 14.19-110.88 26.9-167.11 35.2-41.09 6.07-83.4 4.32-125.18 5.18-23.47.49-48.73-6.38-69.96.32-20.3 6.41-36.51 25.96-54.35 39.95-48.27 37.84-98.95 71.69-160.62 82.65-65.04 11.57-129.04 9.79-183.98-33.33-49.5-38.85-77.94-91.15-90.73-152.59-7.48-35.94-5.93-72.05-4.76-108.21.26-8.09-2.32-12.74-8.99-17.67-90.6-67.01-175.77-139.83-241.76-232.39-46.78-65.61-89.66-133.65-121.12-208.13-13.93-32.97-24.19-66.92-21.38-103.9 1.49-19.57 11.77-30.64 27.88-37.3 25.43-10.52 52.07-18.29 76.98-29.85 29.69-13.77 50.48-38.65 70.32-63.94 1.47-1.81 1.86-4.49 2.8-6.94zm225.6 631.06c11.1-37.75 20.01-72.8 31.81-106.85 11.79-34.02 26.03-67.23 40.01-100.45 16.69-39.68 34.43-78.54 67.63-108.4 29.94-26.93 68.8-27.41 96.21 1.69 6.97 7.4 13.06 15.8 18.62 24.35 25.51 39.28 49.46 79.33 82.24 113.73 39.1 41.04 86.45 62.69 141.55 68.04 36.05 3.5 72.41 3.66 108.62 5.5 39.69 2.01 69.7 25.61 74.59 59.32 4.37 30.14-.92 58.87-17.95 84.27-17.05 25.44-34.95 50.38-53.7 74.6-18.41 23.78-38.36 46.38-58.87 70.98 53.21 1.29 104.97 3.57 155.61-6.22 58.75-11.35 117.28-24.78 174.91-40.87 104.05-29.04 200.99-73.65 286.99-140.2 62.45-48.33 124.1-97.49 175.37-158.24 61.35-72.69 111.55-152.55 151.87-238.5 10.2-21.73 16.2-45.52 23.19-68.64 3.17-10.47.43-17.74-12.83-20.76-56.92-12.98-102.22-45.03-139.9-88.66-26.77-31-45.02-67.09-59.88-104.8-10.87-27.59-20.12-55.84-29.34-84.04-5.02-15.35 2.49-31.43 15.01-35.28 16.09-4.95 30.1 2.67 35.8 19.57 5.15 15.27 9.89 30.7 15.43 45.83 6.79 18.53 14.22 36.82 21.89 56.53 7.44-4.33 12.69-7 17.54-10.27 50.37-33.99 98.85-70.65 137.09-118.19 22.52-28 43.84-58.05 59.67-90.15 35.24-71.47 44.63-148.12 38.03-227.48-5.73-68.92-25.03-133.27-57.43-194-38.56-72.28-91.72-130.9-162.71-172.55-64.15-37.63-134.09-48.42-206.91-41.1-45.31 4.55-87.55 20.81-127.15 43.11-29.68 16.72-57.33 36.43-82.1 60.38 1.17 2.17 1.93 3.65 2.76 5.09 8.14 14.05 7.88 24.16-.88 33.91-8.2 9.12-21.88 11.33-34.9 5.46-20.9-9.43-41.18-20.56-62.72-28.15-77.52-27.31-158.59-35.12-239.88-38.26-64.72-2.5-129.77-3.36-194.11 7.22-40.65 6.69-81.74 12.25-121.41 22.86-31.28 8.37-60.42 24.47-91.12 35.42-8.51 3.03-20.4 2.64-28.6-1-11.07-4.92-13.46-17.09-10.54-28.83 1.27-5.09 4.68-9.66 7.19-14.62-33.24-30.09-69.34-54.49-109.3-73.59-64.18-30.68-131.87-37.83-200.66-26.17-88.12 14.93-157.91 63.08-214.79 130.59-30.34 36.01-54.68 76.03-72.77 119.53-18.84 45.3-32.37 92.16-37.39 141.17-4.23 41.32-3.32 82.49 2.15 123.75 8.32 62.78 30.15 120.33 66.48 171.9 44.9 63.73 104.16 112.41 168.23 155.65 4.07 2.74 8.69 4.66 13.76 7.33 2.14-4.21 3.96-7.05 5.1-10.14 11.1-30.26 22.23-60.51 33.06-90.87 6.13-17.18 19.58-24.88 35.5-19.68 13.37 4.37 20.46 18.91 15.63 34.67-15.68 51.21-32.93 101.94-60.84 148-35.55 58.66-84.04 102.34-150.16 124.42-36.82 12.29-37.2 12.43-24.77 49.58 29.39 87.85 79.31 164.45 132.94 238.76 39.94 55.34 88.06 103.21 140.54 146.68 22.87 18.97 46.21 37.4 70.59 57.07zm206.37 315.74c54.11.07 99.37-15.1 141.01-42.2 100.81-65.61 177.54-154.8 245.4-252.3 9.04-12.99 12.86-30.24 16.53-46.11 2.48-10.74-7.81-21.45-19-22.96-10.1-1.36-20.3-2.16-30.49-2.73-32.34-1.83-64.89-1.8-97-5.53-52.1-6.04-99.32-24.73-140.09-59.08-44.82-37.77-76.15-85.74-106.6-134.76-24.05-38.72-33.19-44.46-61.75-1.51-16.3 24.51-27.69 52.55-39.31 79.85-35.87 84.27-66.26 170.03-72.1 262.77-2.37 37.6.93 73.88 13.45 109.27 24.46 69.09 81.66 119.17 149.95 115.29zm659.78-1786.12c0-3.82.31-7.67-.05-11.47-5.5-58.03-9.72-116.23-17.23-174-3.64-27.97-12.63-55.38-20.79-82.57-6.61-22-17.95-24.36-33.51-8.62-24.87 25.17-37.97 57.14-50.7 89.21-8.28 20.87-14.91 42.46-24.1 62.91-9.11 20.27-22.16 26.08-43.91 24.62-18.1-1.22-28.63-14.38-40.37-24.96-43.58-39.27-89.97-74.4-142.31-101.32-79.01-40.63-162.56-68.61-248.68-89.45-37.4-9.05-75.14-14.8-113.84-12.9-22.54 1.11-29.9 10.68-23.28 31.99 1.51 4.86 3.03 9.74 5.04 14.4 16.9 39.2 45.46 69.83 74.76 99.61 59.87 60.84 130.47 108.35 199.24 158.08 2.77 2 7.19 2.96 10.64 2.58 24.94-2.74 49.76-6.86 74.76-8.78 33.58-2.58 67.28-4.69 100.94-4.93 28.1-.2 56.28 1.99 84.33 4.18 30.13 2.34 60.36 4.62 90.18 9.26 39.44 6.13 78.51 14.52 118.88 22.16z"/><path d="m1678.92 1237.01c36.89-37.27 72.8-73.68 108.87-109.95 12.82-12.89 25.8-12.99 38.75-.14 32.12 31.88 64.08 63.92 96.02 96 14.29 14.35 14.1 30.58-.44 45.36-30.83 31.35-61.72 62.64-92.66 93.89-3.29 3.32-7.04 6.18-11.23 9.83 10.5 11.37 19.66 21.83 29.39 31.74 25.73 26.19 51.75 52.1 77.57 78.22 9.92 10.03 11.03 28.09 1.35 37.92-33.55 34.07-67.37 67.87-101.46 101.4-9.36 9.21-27.72 8.31-36.97-1-36.11-36.34-72.07-72.84-108.98-110.17-35.04 35.48-69.15 70.17-103.46 104.66-17.18 17.27-32.09 17.33-48.99.5-31.76-31.64-63.45-63.35-95.07-95.13-11.78-11.85-11.79-24.8-.26-36.51 32.64-33.16 65.28-66.32 98.11-99.29 3.27-3.29 7.84-5.29 12.68-8.46-38.59-39.08-74.28-75.19-109.91-111.35-12.68-12.87-12.62-25.56.31-38.53 32.85-32.97 65.75-65.88 98.73-98.72 13.58-13.51 25.73-13.54 39.56.35 35.84 35.99 71.44 72.25 108.09 109.38zm-193.17 259.93c.29 2.41.58 4.81.87 7.22 22.08 19.97 44.17 39.93 67 60.58 34.08-34.42 69.78-70.6 105.64-106.63 13.64-13.7 25.71-13.68 39.59-.01 26.16 25.79 52.03 51.88 78.25 77.61 9.33 9.16 19.32 17.65 28 25.53 21.66-20.48 42.52-40.22 64.16-60.69-36.66-37.18-71.87-72.59-106.56-108.49-4.29-4.44-8.05-11.51-8.1-17.39-.05-6.31 2.92-14.36 7.41-18.72 36.72-35.7 74.1-70.72 114.06-108.58-26.84-23.97-49.1-43.85-72.35-64.61-32.83 33.28-68.15 69.25-103.67 105.01-14.51 14.6-27.37 14.63-41.75.15-35.52-35.77-70.84-71.72-104.16-105.48-22.83 21.12-44.68 41.33-67.21 62.16 35.86 36.37 70.33 71.33 104.78 106.3 14.39 14.61 14.7 30.95-.21 45.33-35.02 33.8-70.46 67.17-105.75 100.71z"/><path d="m775.59 1375.83c-37.27-37.81-71.73-72.71-106.12-107.69-14.51-14.76-14.59-30.89-.17-45.36 31.04-31.16 62.12-62.27 93.3-93.29 16.31-16.22 27.47-16.4 43.3-.49 35.24 35.41 70.31 70.99 106.94 108.01 35.31-35.81 69.82-71 104.55-105.95 18.83-18.95 28-18.88 46.86-.08 32.06 31.95 64.02 63.99 95.92 96.09 11.68 11.75 11.92 25.11 0 36.57-36.62 35.19-73.54 70.08-110.91 105.62 12.99 14.08 22.14 24.54 31.87 34.43 26.04 26.49 52.36 52.7 78.5 79.1 12.38 12.5 12.58 25.2.37 37.46-32.83 32.98-65.75 65.88-98.73 98.71-11.48 11.43-29.19 11.67-40.69.09-35.75-35.99-71.23-72.25-107.79-109.39-36.68 37.2-71.99 73.14-107.46 108.91-12.02 12.12-29.36 12.14-41.62-.02-32.13-31.87-64.14-63.87-96.02-95.99-12.18-12.27-12.05-29.5-.11-41.63 31.74-32.25 63.48-64.5 95.4-96.57 3.27-3.3 7.8-5.34 12.61-8.53zm262.56 189.03c22.64-21.09 44.18-41.15 66.08-61.55-4.12-4.44-6.89-7.56-9.8-10.54-31.62-32.37-63.28-64.69-94.89-97.07-13.7-14.04-13.93-30.85.19-44.42 35.39-34.01 71.12-67.68 109.43-104.07-26.44-23.54-48.71-43.36-72.07-64.16-32.24 32.67-67.22 68.29-102.39 103.7-16.13 16.24-28.08 16.12-44.53-.47-35-35.31-69.8-70.81-102.52-104.04-23.24 21.58-44.81 41.6-67.14 62.34 37.56 38.11 73.83 74.86 110.03 111.67 10.27 10.45 10.29 24.15-.13 34.71-25.8 26.15-51.8 52.09-77.61 78.24-9.8 9.93-19.28 20.19-30.84 32.34 20.96 21.43 41.1 42.02 62.06 63.46 6.13-5.83 9.5-8.92 12.76-12.13 31.94-31.48 63.82-63.01 95.8-94.44 14.44-14.19 26.1-14.21 40.49.26 35.53 35.72 70.91 71.63 105.08 106.17z"/><path d="m1499.59 1719.53c.35 54.56-29.49 90.83-71.58 116.01-77.36 46.28-159.67 47.65-241.26 12.69-44.55-19.09-80.31-50.71-91.62-101.25-8.66-38.74-.79-74.28 26.28-104.66 39.74-44.61 90.81-63.96 149.06-68.16 42.56-3.06 84.38-.25 124.28 15.91 48.97 19.83 87.68 50.24 102.34 104.05.56 2.05 1.21 4.12 1.37 6.22.52 6.8.82 13.63 1.13 19.19zm-203.3-94.25c-13.12 1.21-26.38 1.6-39.34 3.79-34.59 5.83-66.56 17.76-91.6 43.71-23.58 24.44-27.83 61.13-7.41 86.07 11.37 13.88 25.68 26.92 41.33 35.43 38.25 20.8 79.69 27.67 123.4 21.68 34.45-4.72 66.22-14.94 93.49-37.06 27.82-22.56 37.68-54.34 24.82-83.9-8.42-19.36-23.76-33.03-41.88-43.46-31.79-18.29-66.23-26.04-102.81-26.26z"/></svg>