<?xml version="1.0" encoding="UTF-8"?>
<!-- Generated by Pixelmator Pro 3.4.3 -->
<svg width="1024" height="1024" viewBox="0 0 1024 1024" xmlns="http://www.w3.org/2000/svg" xmlns:xlink="http://www.w3.org/1999/xlink">
    <linearGradient id="linearGradient1" x1="468.987661" y1="1022.190101" x2="555.012339" y2="1.809899" gradientUnits="userSpaceOnUse">
        <stop offset="0" stop-color="#0088ec" stop-opacity="1"/>
        <stop offset="1" stop-color="#00d6ff" stop-opacity="1"/>
    </linearGradient>
    <path id="Rectangle" fill="url(#linearGradient1)" fill-rule="evenodd" stroke="none" d="M 0 1024 L 1024 1024 L 1024 0 L 0 0 Z"/>
    <g id="Group">
        <linearGradient id="linearGradient2" x1="521.240998" y1="926.8971" x2="502.759002" y2="97.1029" gradientUnits="userSpaceOnUse">
            <stop offset="0" stop-color="#000000" stop-opacity="1"/>
            <stop offset="0.175919" stop-color="#02447a" stop-opacity="1"/>
            <stop offset="1" stop-color="#0089b9" stop-opacity="1"/>
        </linearGradient>
        <filter id="filter1" x="0" y="0" width="1024" height="1024" filterUnits="userSpaceOnUse" primitiveUnits="userSpaceOnUse" color-interpolation-filters="sRGB">
            <feFlood flood-color="#000000" flood-opacity="0.5"/>
            <feComposite in2="SourceGraphic" operator="out"/>
            <feGaussianBlur stdDeviation="58"/>
            <feOffset dx="0" dy="2"/>
            <feComposite in2="SourceGraphic" operator="atop"/>
        </filter>
        <path id="Ellipse" fill="url(#linearGradient2)" fill-rule="evenodd" stroke="none" filter="url(#filter1)" d="M 927 512 C 927 282.801819 741.198181 97 512 97 C 282.801819 97 97 282.801819 97 512 C 97 741.198181 282.801819 927 512 927 C 741.198181 927 927 741.198181 927 512 Z"/>
        <mask id="mask1" maskUnits="userSpaceOnUse" maskContentUnits="userSpaceOnUse" mask-type="alpha">
            <linearGradient id="linearGradient3" x1="521.240998" y1="926.8971" x2="502.759002" y2="97.1029" gradientUnits="userSpaceOnUse">
                <stop offset="0" stop-color="#000000" stop-opacity="1"/>
                <stop offset="0.175919" stop-color="#02447a" stop-opacity="1"/>
                <stop offset="1" stop-color="#0089b9" stop-opacity="1"/>
            </linearGradient>
            <filter id="filter2" x="0" y="0" width="1024" height="1024" filterUnits="userSpaceOnUse" primitiveUnits="userSpaceOnUse" color-interpolation-filters="sRGB">
                <feFlood flood-color="#000000" flood-opacity="0.5"/>
                <feComposite in2="SourceGraphic" operator="out"/>
                <feGaussianBlur stdDeviation="58"/>
                <feOffset dx="0" dy="2"/>
                <feComposite in2="SourceGraphic" operator="atop"/>
            </filter>
            <path id="path1" fill="url(#linearGradient3)" fill-rule="evenodd" stroke="none" filter="url(#filter2)" d="M 927 512 C 927 282.801819 741.198181 97 512 97 C 282.801819 97 97 282.801819 97 512 C 97 741.198181 282.801819 927 512 927 C 741.198181 927 927 741.198181 927 512 Z"/>
        </mask>
        <g id="g1" mask="url(#mask1)">
            <g id="g2">
                <path id="path2" fill="#ffffff" fill-rule="evenodd" stroke="none" d="M 199.565506 927 L 823.07489 927 C 823.07489 927 807.715271 962.359253 803 863 C 802.182007 845.761841 840.297852 767.121338 799 618 C 758.063416 470.183044 684.426819 478.25824 676 479 C 647.941772 481.469849 644.980835 531.30957 643 556 C 640.957703 581.456421 647 630 647 630 C 647 630 561.594482 619.841553 511.999939 620 C 461.419983 620.161621 378 631 378 631 C 378 631 383.121399 598.753357 381 560 C 378.491974 514.184082 373.453461 488.519043 352 480 C 326.438324 469.849609 252.407043 497.910828 222 625 C 194.794113 738.709595 211.205704 850.585999 211 859 C 209.868973 905.264893 199.565506 927 199.565506 927 Z"/>
                <g id="g3">
                    <path id="path3" fill="#13114f" fill-rule="evenodd" stroke="none" d="M 677.046387 769.477417 C 677.046387 745.628784 657.713257 726.295532 633.864563 726.295532 C 610.015869 726.295532 590.682678 745.628784 590.682678 769.477417 C 590.682678 793.326111 610.015869 812.659302 633.864563 812.659302 C 657.713257 812.659302 677.046387 793.326111 677.046387 769.477417 Z"/>
                    <path id="Ellipse-copy" fill="#13114f" fill-rule="evenodd" stroke="none" d="M 431.943726 769.477417 C 431.943726 745.628784 412.610565 726.295532 388.761871 726.295532 C 364.913177 726.295532 345.580017 745.628784 345.580017 769.477417 C 345.580017 793.326111 364.913177 812.659302 388.761871 812.659302 C 412.610565 812.659302 431.943726 793.326111 431.943726 769.477417 Z"/>
                    <path id="path4" fill="#f67abf" fill-rule="evenodd" stroke="none" d="M 511.155853 858.273926 C 552.847107 857.50177 546.892639 788.939697 546.892639 788.939697 L 476.950165 788.939697 C 476.950165 788.939697 472.593872 858.988159 511.155853 858.273926 Z"/>
                </g>
            </g>
        </g>
        <path id="path5" fill="#ffffff" fill-rule="evenodd" stroke="none" d="M 262 360 L 486 386 L 512 538 L 538 386 L 762 360 L 538 334 L 512 182 L 486 334 L 262 360 Z"/>
    </g>
</svg>
